<svg width="24" height="18" viewBox="0 0 24 18" fill="none" xmlns="http://www.w3.org/2000/svg">
<path d="M21.0598 1.5025C22.3473 2.87 23.0386 4.40375 23.0386 6.89C23.0386 11.265 19.9673 15.1863 15.5011 17.125L14.3848 15.4025C18.5536 13.1475 19.3686 10.2213 19.6936 8.37625C19.0223 8.72375 18.1436 8.845 17.2823 8.765C15.0273 8.55625 13.2498 6.705 13.2498 4.40375C13.2498 3.24343 13.7108 2.13063 14.5312 1.31016C15.3517 0.489684 16.4645 0.0287489 17.6248 0.0287488C18.9661 0.0287487 20.2486 0.64125 21.0598 1.5025V1.5025ZM8.55982 1.5025C9.84732 2.87 10.5386 4.40375 10.5386 6.89C10.5386 11.265 7.46732 15.1863 3.00108 17.125L1.88483 15.4025C6.05358 13.1475 6.86858 10.2213 7.19358 8.37625C6.52233 8.72375 5.64358 8.845 4.78233 8.765C2.52733 8.55625 0.749826 6.705 0.749826 4.40375C0.749826 3.24343 1.21076 2.13063 2.03123 1.31016C2.8517 0.489685 3.9645 0.02875 5.12483 0.0287499C6.46608 0.0287498 7.74857 0.641251 8.55982 1.5025V1.5025Z" fill="#381DDB"/>
</svg>
