<svg width="48" height="48" viewBox="0 0 48 48" fill="none" xmlns="http://www.w3.org/2000/svg">
<g clip-path="url(#clip0)" filter="url(#filter0_d)">
<path d="M43.4887 12.2983L31.7019 0.51132C31.2206 0.0299142 30.503 -0.127117 29.8642 0.108899C29.2256 0.34507 28.7828 0.931476 28.7307 1.61038L27.7979 13.7365L21.7893 19.7451L20.0754 18.0311C19.3946 17.3503 18.2906 17.3503 17.6097 18.0311C16.9289 18.7119 16.9289 19.8158 17.6097 20.4967L19.3236 22.2105L15.8959 25.6383L14.1821 23.9245C13.5015 23.2435 12.3975 23.2437 11.7165 23.9245C11.0356 24.6053 11.0356 25.7091 11.7165 26.3901L13.4303 28.1041L7.21624 34.3182L6.97578 34.0777C6.295 33.3969 5.19101 33.3969 4.51016 34.0777C3.8293 34.7585 3.8293 35.8625 4.51016 36.5433L5.98351 38.0167L7.45687 39.49C7.79734 39.8304 8.24351 40.0006 8.6896 40.0006C9.13585 40.0006 9.58202 39.8303 9.92233 39.49C10.6032 38.8091 10.6032 37.7052 9.92233 37.0243L9.68186 36.7839L13.3157 33.15C13.6083 33.9215 14.0622 34.6294 14.6632 35.2304C15.7796 36.3466 17.264 36.9615 18.8427 36.9615C20.4215 36.9615 21.9057 36.3467 23.022 35.2304L28.9158 29.3368C31.2202 27.0322 31.2202 23.2822 28.9156 20.9776C28.3146 20.3769 27.6066 19.9231 26.8353 19.6304L30.2635 16.2021L42.3896 15.2694C43.0685 15.2172 43.6549 14.7745 43.8911 14.1359C44.1273 13.4972 43.9702 12.7797 43.4887 12.2983ZM26.4502 26.8712L20.5564 32.7646C20.0986 33.2224 19.49 33.4745 18.8428 33.4745C18.1954 33.4745 17.5865 33.2224 17.1288 32.7646C16.6711 32.3068 16.419 31.6983 16.419 31.0508C16.419 30.4034 16.6711 29.7947 17.1288 29.337L23.0245 23.4414C23.4821 22.9851 24.0897 22.7336 24.7361 22.7336C25.3836 22.7336 25.9926 22.9858 26.4503 23.4433C27.395 24.3885 27.395 25.9262 26.4502 26.8712Z" fill="#84C4FF"/>
</g>
<defs>
<filter id="filter0_d" x="0" y="0" width="48" height="48" filterUnits="userSpaceOnUse" color-interpolation-filters="sRGB">
<feFlood flood-opacity="0" result="BackgroundImageFix"/>
<feColorMatrix in="SourceAlpha" type="matrix" values="0 0 0 0 0 0 0 0 0 0 0 0 0 0 0 0 0 0 127 0" result="hardAlpha"/>
<feOffset dy="4"/>
<feGaussianBlur stdDeviation="2"/>
<feComposite in2="hardAlpha" operator="out"/>
<feColorMatrix type="matrix" values="0 0 0 0 0 0 0 0 0 0 0 0 0 0 0 0 0 0 0.25 0"/>
<feBlend mode="normal" in2="BackgroundImageFix" result="effect1_dropShadow"/>
<feBlend mode="normal" in="SourceGraphic" in2="effect1_dropShadow" result="shape"/>
</filter>
<clipPath id="clip0">
<rect width="40" height="40" fill="white" transform="translate(4)"/>
</clipPath>
</defs>
</svg>
